<?xml version="1.0" encoding="utf-8" standalone="no"?>
<!DOCTYPE svg PUBLIC "-//W3C//DTD SVG 1.1//EN"
  "http://www.w3.org/Graphics/SVG/1.1/DTD/svg11.dtd">
<svg xmlns:xlink="http://www.w3.org/1999/xlink" width="325.340664pt" height="256.868pt" viewBox="0 0 325.340664 256.868" xmlns="http://www.w3.org/2000/svg" version="1.1">
 <metadata>
  <rdf:RDF xmlns:dc="http://purl.org/dc/elements/1.1/" xmlns:cc="http://creativecommons.org/ns#" xmlns:rdf="http://www.w3.org/1999/02/22-rdf-syntax-ns#">
   <cc:Work>
    <dc:type rdf:resource="http://purl.org/dc/dcmitype/StillImage"/>
    <dc:date>2026-08-04T12:48:49.199707</dc:date>
    <dc:format>image/svg+xml</dc:format>
    <dc:creator>
     <cc:Agent>
      <dc:title>Matplotlib v3.11.1, https://matplotlib.org/</dc:title>
     </cc:Agent>
    </dc:creator>
   </cc:Work>
  </rdf:RDF>
 </metadata>
 <defs>
  <style type="text/css">*{stroke-linejoin: round; stroke-linecap: butt}</style>
 </defs>
 <g id="figure_1">
  <g id="patch_1">
   <path d="M -0 256.868 
L 325.340664 256.868 
L 325.340664 0 
L -0 0 
z
" style="fill: #ffffff"/>
  </g>
  <g id="axes_1">
   <g id="patch_2">
    <path d="M 18.260664 238.608 
L 319.580664 238.608 
L 319.580664 5.76 
L 18.260664 5.76 
z
" style="fill: #ffffff"/>
   </g>
   <g id="matplotlib.axis_1">
    <g id="text_1">
     <text style="font-size: 8.5px; font-family: 'Inter', 'DejaVu Sans'; text-anchor: middle; fill: #5a6560" x="168.920664" y="249.066008" transform="rotate(-0 168.920664 249.066008)">Impact →</text>
    </g>
   </g>
   <g id="matplotlib.axis_2">
    <g id="text_2">
     <text style="font-size: 8.5px; font-family: 'Inter', 'DejaVu Sans'; text-anchor: middle; fill: #5a6560" x="12.218672" y="122.184" transform="rotate(-90 12.218672 122.184)">Probability →</text>
    </g>
   </g>
   <g id="patch_3">
    <path d="M 18.260664 238.608 
L 78.524664 238.608 
L 78.524664 192.0384 
L 18.260664 192.0384 
z
" clip-path="url(#p2f3b2dfc2b)" style="fill: #16a34a; opacity: 0.28; stroke: #ffffff; stroke-linejoin: miter"/>
   </g>
   <g id="patch_4">
    <path d="M 78.524664 238.608 
L 138.788664 238.608 
L 138.788664 192.0384 
L 78.524664 192.0384 
z
" clip-path="url(#p2f3b2dfc2b)" style="fill: #16a34a; opacity: 0.28; stroke: #ffffff; stroke-linejoin: miter"/>
   </g>
   <g id="patch_5">
    <path d="M 138.788664 238.608 
L 199.052664 238.608 
L 199.052664 192.0384 
L 138.788664 192.0384 
z
" clip-path="url(#p2f3b2dfc2b)" style="fill: #16a34a; opacity: 0.28; stroke: #ffffff; stroke-linejoin: miter"/>
   </g>
   <g id="patch_6">
    <path d="M 199.052664 238.608 
L 259.316664 238.608 
L 259.316664 192.0384 
L 199.052664 192.0384 
z
" clip-path="url(#p2f3b2dfc2b)" style="fill: #8a5a00; opacity: 0.28; stroke: #ffffff; stroke-linejoin: miter"/>
   </g>
   <g id="patch_7">
    <path d="M 259.316664 238.608 
L 319.580664 238.608 
L 319.580664 192.0384 
L 259.316664 192.0384 
z
" clip-path="url(#p2f3b2dfc2b)" style="fill: #8a5a00; opacity: 0.28; stroke: #ffffff; stroke-linejoin: miter"/>
   </g>
   <g id="patch_8">
    <path d="M 18.260664 192.0384 
L 78.524664 192.0384 
L 78.524664 145.4688 
L 18.260664 145.4688 
z
" clip-path="url(#p2f3b2dfc2b)" style="fill: #16a34a; opacity: 0.28; stroke: #ffffff; stroke-linejoin: miter"/>
   </g>
   <g id="patch_9">
    <path d="M 78.524664 192.0384 
L 138.788664 192.0384 
L 138.788664 145.4688 
L 78.524664 145.4688 
z
" clip-path="url(#p2f3b2dfc2b)" style="fill: #16a34a; opacity: 0.28; stroke: #ffffff; stroke-linejoin: miter"/>
   </g>
   <g id="patch_10">
    <path d="M 138.788664 192.0384 
L 199.052664 192.0384 
L 199.052664 145.4688 
L 138.788664 145.4688 
z
" clip-path="url(#p2f3b2dfc2b)" style="fill: #8a5a00; opacity: 0.28; stroke: #ffffff; stroke-linejoin: miter"/>
   </g>
   <g id="patch_11">
    <path d="M 199.052664 192.0384 
L 259.316664 192.0384 
L 259.316664 145.4688 
L 199.052664 145.4688 
z
" clip-path="url(#p2f3b2dfc2b)" style="fill: #8a5a00; opacity: 0.28; stroke: #ffffff; stroke-linejoin: miter"/>
   </g>
   <g id="patch_12">
    <path d="M 259.316664 192.0384 
L 319.580664 192.0384 
L 319.580664 145.4688 
L 259.316664 145.4688 
z
" clip-path="url(#p2f3b2dfc2b)" style="fill: #8a5a00; opacity: 0.28; stroke: #ffffff; stroke-linejoin: miter"/>
   </g>
   <g id="patch_13">
    <path d="M 18.260664 145.4688 
L 78.524664 145.4688 
L 78.524664 98.8992 
L 18.260664 98.8992 
z
" clip-path="url(#p2f3b2dfc2b)" style="fill: #16a34a; opacity: 0.28; stroke: #ffffff; stroke-linejoin: miter"/>
   </g>
   <g id="patch_14">
    <path d="M 78.524664 145.4688 
L 138.788664 145.4688 
L 138.788664 98.8992 
L 78.524664 98.8992 
z
" clip-path="url(#p2f3b2dfc2b)" style="fill: #8a5a00; opacity: 0.28; stroke: #ffffff; stroke-linejoin: miter"/>
   </g>
   <g id="patch_15">
    <path d="M 138.788664 145.4688 
L 199.052664 145.4688 
L 199.052664 98.8992 
L 138.788664 98.8992 
z
" clip-path="url(#p2f3b2dfc2b)" style="fill: #8a5a00; opacity: 0.28; stroke: #ffffff; stroke-linejoin: miter"/>
   </g>
   <g id="patch_16">
    <path d="M 199.052664 145.4688 
L 259.316664 145.4688 
L 259.316664 98.8992 
L 199.052664 98.8992 
z
" clip-path="url(#p2f3b2dfc2b)" style="fill: #8a5a00; opacity: 0.28; stroke: #ffffff; stroke-linejoin: miter"/>
   </g>
   <g id="patch_17">
    <path d="M 259.316664 145.4688 
L 319.580664 145.4688 
L 319.580664 98.8992 
L 259.316664 98.8992 
z
" clip-path="url(#p2f3b2dfc2b)" style="fill: #8a5a00; opacity: 0.28; stroke: #ffffff; stroke-linejoin: miter"/>
   </g>
   <g id="patch_18">
    <path d="M 18.260664 98.8992 
L 78.524664 98.8992 
L 78.524664 52.3296 
L 18.260664 52.3296 
z
" clip-path="url(#p2f3b2dfc2b)" style="fill: #8a5a00; opacity: 0.28; stroke: #ffffff; stroke-linejoin: miter"/>
   </g>
   <g id="patch_19">
    <path d="M 78.524664 98.8992 
L 138.788664 98.8992 
L 138.788664 52.3296 
L 78.524664 52.3296 
z
" clip-path="url(#p2f3b2dfc2b)" style="fill: #8a5a00; opacity: 0.28; stroke: #ffffff; stroke-linejoin: miter"/>
   </g>
   <g id="patch_20">
    <path d="M 138.788664 98.8992 
L 199.052664 98.8992 
L 199.052664 52.3296 
L 138.788664 52.3296 
z
" clip-path="url(#p2f3b2dfc2b)" style="fill: #8a5a00; opacity: 0.28; stroke: #ffffff; stroke-linejoin: miter"/>
   </g>
   <g id="patch_21">
    <path d="M 199.052664 98.8992 
L 259.316664 98.8992 
L 259.316664 52.3296 
L 199.052664 52.3296 
z
" clip-path="url(#p2f3b2dfc2b)" style="fill: #8a5a00; opacity: 0.28; stroke: #ffffff; stroke-linejoin: miter"/>
   </g>
   <g id="patch_22">
    <path d="M 259.316664 98.8992 
L 319.580664 98.8992 
L 319.580664 52.3296 
L 259.316664 52.3296 
z
" clip-path="url(#p2f3b2dfc2b)" style="fill: #8a5a00; opacity: 0.28; stroke: #ffffff; stroke-linejoin: miter"/>
   </g>
   <g id="patch_23">
    <path d="M 18.260664 52.3296 
L 78.524664 52.3296 
L 78.524664 5.76 
L 18.260664 5.76 
z
" clip-path="url(#p2f3b2dfc2b)" style="fill: #8a5a00; opacity: 0.28; stroke: #ffffff; stroke-linejoin: miter"/>
   </g>
   <g id="patch_24">
    <path d="M 78.524664 52.3296 
L 138.788664 52.3296 
L 138.788664 5.76 
L 78.524664 5.76 
z
" clip-path="url(#p2f3b2dfc2b)" style="fill: #8a5a00; opacity: 0.28; stroke: #ffffff; stroke-linejoin: miter"/>
   </g>
   <g id="patch_25">
    <path d="M 138.788664 52.3296 
L 199.052664 52.3296 
L 199.052664 5.76 
L 138.788664 5.76 
z
" clip-path="url(#p2f3b2dfc2b)" style="fill: #8a5a00; opacity: 0.28; stroke: #ffffff; stroke-linejoin: miter"/>
   </g>
   <g id="patch_26">
    <path d="M 199.052664 52.3296 
L 259.316664 52.3296 
L 259.316664 5.76 
L 199.052664 5.76 
z
" clip-path="url(#p2f3b2dfc2b)" style="fill: #8a5a00; opacity: 0.28; stroke: #ffffff; stroke-linejoin: miter"/>
   </g>
   <g id="patch_27">
    <path d="M 259.316664 52.3296 
L 319.580664 52.3296 
L 319.580664 5.76 
L 259.316664 5.76 
z
" clip-path="url(#p2f3b2dfc2b)" style="fill: #8a5a00; opacity: 0.28; stroke: #ffffff; stroke-linejoin: miter"/>
   </g>
   <g id="line2d_1">
    <defs>
     <path id="mcb14f82468" d="M 0 5 
C 1.326016 5 2.597899 4.473168 3.535534 3.535534 
C 4.473168 2.597899 5 1.326016 5 0 
C 5 -1.326016 4.473168 -2.597899 3.535534 -3.535534 
C 2.597899 -4.473168 1.326016 -5 0 -5 
C -1.326016 -5 -2.597899 -4.473168 -3.535534 -3.535534 
C -4.473168 -2.597899 -5 -1.326016 -5 0 
C -5 1.326016 -4.473168 2.597899 -3.535534 3.535534 
C -2.597899 4.473168 -1.326016 5 0 5 
z
" style="stroke: #14432e"/>
    </defs>
    <g clip-path="url(#p2f3b2dfc2b)">
     <use xlink:href="#mcb14f82468" x="229.184664" y="182.72448" style="fill: #14432e; stroke: #14432e"/>
    </g>
   </g>
   <g id="line2d_2">
    <g clip-path="url(#p2f3b2dfc2b)">
     <use xlink:href="#mcb14f82468" x="114.683064" y="154.78272" style="fill: #14432e; stroke: #14432e"/>
    </g>
   </g>
   <g id="line2d_3">
    <g clip-path="url(#p2f3b2dfc2b)">
     <use xlink:href="#mcb14f82468" x="283.422264" y="219.98016" style="fill: #14432e; stroke: #14432e"/>
    </g>
   </g>
   <g id="line2d_4">
    <g clip-path="url(#p2f3b2dfc2b)">
     <use xlink:href="#mcb14f82468" x="90.577464" y="126.84096" style="fill: #14432e; stroke: #14432e"/>
    </g>
   </g>
   <g id="patch_28">
    <path d="M 18.260664 238.608 
L 18.260664 5.76 
" style="fill: none; stroke: #c8cfc9; stroke-width: 0.8; stroke-linejoin: miter; stroke-linecap: square"/>
   </g>
   <g id="patch_29">
    <path d="M 18.260664 238.608 
L 319.580664 238.608 
" style="fill: none; stroke: #c8cfc9; stroke-width: 0.8; stroke-linejoin: miter; stroke-linecap: square"/>
   </g>
   <g id="text_3">
    <text style="font-size: 7.3px; font-family: 'Inter', 'DejaVu Sans'; text-anchor: middle; fill: #1a1a1a" x="229.184664" y="169.684992" transform="rotate(-0 229.184664 169.684992)">Ground conditions</text>
   </g>
   <g id="text_4">
    <text style="font-size: 7.3px; font-family: 'Inter', 'DejaVu Sans'; text-anchor: middle; fill: #1a1a1a" x="114.683064" y="141.743232" transform="rotate(-0 114.683064 141.743232)">Late permit</text>
   </g>
   <g id="text_5">
    <text style="font-size: 7.3px; font-family: 'Inter', 'DejaVu Sans'; text-anchor: middle; fill: #1a1a1a" x="283.422264" y="206.940672" transform="rotate(-0 283.422264 206.940672)">Supplier failure</text>
   </g>
   <g id="text_6">
    <text style="font-size: 7.3px; font-family: 'Inter', 'DejaVu Sans'; text-anchor: middle; fill: #1a1a1a" x="90.577464" y="113.801472" transform="rotate(-0 90.577464 113.801472)">Design change</text>
   </g>
  </g>
 </g>
 <defs>
  <clipPath id="p2f3b2dfc2b">
   <rect x="18.260664" y="5.76" width="301.32" height="232.848"/>
  </clipPath>
 </defs>
</svg>
