<?xml version="1.0" encoding="utf-8" standalone="no"?>
<!DOCTYPE svg PUBLIC "-//W3C//DTD SVG 1.1//EN"
  "http://www.w3.org/Graphics/SVG/1.1/DTD/svg11.dtd">
<svg xmlns:xlink="http://www.w3.org/1999/xlink" width="424.44pt" height="116.856pt" viewBox="0 0 424.44 116.856" xmlns="http://www.w3.org/2000/svg" version="1.1">
 <metadata>
  <rdf:RDF xmlns:dc="http://purl.org/dc/elements/1.1/" xmlns:cc="http://creativecommons.org/ns#" xmlns:rdf="http://www.w3.org/1999/02/22-rdf-syntax-ns#">
   <cc:Work>
    <dc:type rdf:resource="http://purl.org/dc/dcmitype/StillImage"/>
    <dc:date>2026-08-04T12:48:50.622959</dc:date>
    <dc:format>image/svg+xml</dc:format>
    <dc:creator>
     <cc:Agent>
      <dc:title>Matplotlib v3.11.1, https://matplotlib.org/</dc:title>
     </cc:Agent>
    </dc:creator>
   </cc:Work>
  </rdf:RDF>
 </metadata>
 <defs>
  <style type="text/css">*{stroke-linejoin: round; stroke-linecap: butt}</style>
 </defs>
 <g id="figure_1">
  <g id="patch_1">
   <path d="M 0 116.856 
L 424.44 116.856 
L 424.44 0 
L 0 0 
z
" style="fill: #ffffff"/>
  </g>
  <g id="axes_1">
   <g id="patch_2">
    <path d="M 15.11952 80.734447 
L 78.98448 80.734447 
Q 80.63616 80.734447 80.63616 78.875576 
L 80.63616 31.784188 
Q 80.63616 29.925318 78.98448 29.925318 
L 15.11952 29.925318 
Q 13.46784 29.925318 13.46784 31.784188 
L 13.46784 78.875576 
Q 13.46784 80.734447 15.11952 80.734447 
z
" clip-path="url(#p33c90c2610)" style="fill: #f2f6f3; stroke: #14432e; stroke-width: 1.2; stroke-linejoin: miter"/>
   </g>
   <g id="patch_3">
    <path d="M 83.461409 55.329882 
Q 88.342738 55.329882 91.658819 55.329882 
" clip-path="url(#p33c90c2610)" style="fill: none; stroke: #14432e; stroke-width: 1.4; stroke-linecap: round"/>
    <path d="M 86.858819 52.929882 
L 91.658819 55.329882 
L 86.858819 57.729882 
z
" clip-path="url(#p33c90c2610)" style="fill: #14432e; stroke: #14432e; stroke-width: 1.4; stroke-linecap: round"/>
   </g>
   <g id="patch_4">
    <path d="M 97.70352 80.734447 
L 161.56848 80.734447 
Q 163.22016 80.734447 163.22016 78.875576 
L 163.22016 31.784188 
Q 163.22016 29.925318 161.56848 29.925318 
L 97.70352 29.925318 
Q 96.05184 29.925318 96.05184 31.784188 
L 96.05184 78.875576 
Q 96.05184 80.734447 97.70352 80.734447 
z
" clip-path="url(#p33c90c2610)" style="fill: #f2f6f3; stroke: #14432e; stroke-width: 1.2; stroke-linejoin: miter"/>
   </g>
   <g id="patch_5">
    <path d="M 166.045409 55.329882 
Q 170.926738 55.329882 174.242819 55.329882 
" clip-path="url(#p33c90c2610)" style="fill: none; stroke: #14432e; stroke-width: 1.4; stroke-linecap: round"/>
    <path d="M 169.442819 52.929882 
L 174.242819 55.329882 
L 169.442819 57.729882 
z
" clip-path="url(#p33c90c2610)" style="fill: #14432e; stroke: #14432e; stroke-width: 1.4; stroke-linecap: round"/>
   </g>
   <g id="patch_6">
    <path d="M 180.28752 80.734447 
L 244.15248 80.734447 
Q 245.80416 80.734447 245.80416 78.875576 
L 245.80416 31.784188 
Q 245.80416 29.925318 244.15248 29.925318 
L 180.28752 29.925318 
Q 178.63584 29.925318 178.63584 31.784188 
L 178.63584 78.875576 
Q 178.63584 80.734447 180.28752 80.734447 
z
" clip-path="url(#p33c90c2610)" style="fill: #14432e; stroke: #14432e; stroke-width: 1.2; stroke-linejoin: miter"/>
   </g>
   <g id="patch_7">
    <path d="M 248.629409 55.329882 
Q 253.510738 55.329882 256.826819 55.329882 
" clip-path="url(#p33c90c2610)" style="fill: none; stroke: #14432e; stroke-width: 1.4; stroke-linecap: round"/>
    <path d="M 252.026819 52.929882 
L 256.826819 55.329882 
L 252.026819 57.729882 
z
" clip-path="url(#p33c90c2610)" style="fill: #14432e; stroke: #14432e; stroke-width: 1.4; stroke-linecap: round"/>
   </g>
   <g id="patch_8">
    <path d="M 262.87152 80.734447 
L 326.73648 80.734447 
Q 328.38816 80.734447 328.38816 78.875576 
L 328.38816 31.784188 
Q 328.38816 29.925318 326.73648 29.925318 
L 262.87152 29.925318 
Q 261.21984 29.925318 261.21984 31.784188 
L 261.21984 78.875576 
Q 261.21984 80.734447 262.87152 80.734447 
z
" clip-path="url(#p33c90c2610)" style="fill: #f2f6f3; stroke: #14432e; stroke-width: 1.2; stroke-linejoin: miter"/>
   </g>
   <g id="patch_9">
    <path d="M 331.213409 55.329882 
Q 336.094738 55.329882 339.410819 55.329882 
" clip-path="url(#p33c90c2610)" style="fill: none; stroke: #14432e; stroke-width: 1.4; stroke-linecap: round"/>
    <path d="M 334.610819 52.929882 
L 339.410819 55.329882 
L 334.610819 57.729882 
z
" clip-path="url(#p33c90c2610)" style="fill: #14432e; stroke: #14432e; stroke-width: 1.4; stroke-linecap: round"/>
   </g>
   <g id="patch_10">
    <path d="M 345.45552 80.734447 
L 409.32048 80.734447 
Q 410.97216 80.734447 410.97216 78.875576 
L 410.97216 31.784188 
Q 410.97216 29.925318 409.32048 29.925318 
L 345.45552 29.925318 
Q 343.80384 29.925318 343.80384 31.784188 
L 343.80384 78.875576 
Q 343.80384 80.734447 345.45552 80.734447 
z
" clip-path="url(#p33c90c2610)" style="fill: #f2f6f3; stroke: #14432e; stroke-width: 1.2; stroke-linejoin: miter"/>
   </g>
   <g id="text_1">
    <text style="font-size: 7.5px; font-family: 'Inter', 'DejaVu Sans'; fill: #1a1a1a" transform="translate(37.605516 52.777099)">Form</text>
    <text style="font-size: 7.5px; font-family: 'Inter', 'DejaVu Sans'; fill: #1a1a1a" transform="translate(19.362938 61.77915)">(award, terms)</text>
   </g>
   <g id="text_2">
    <text style="font-size: 7.5px; font-family: 'Inter', 'DejaVu Sans'; fill: #1a1a1a" transform="translate(114.33893 52.777392)">Mobilise</text>
    <text style="font-size: 7.5px; font-family: 'Inter', 'DejaVu Sans'; fill: #1a1a1a" transform="translate(96.998109 61.779443)">(bonds, advance)</text>
   </g>
   <g id="text_3">
    <text style="font-weight: 700; font-size: 7.5px; font-family: 'Inter', 'DejaVu Sans'; fill: #ffffff" transform="translate(189.068438 48.276367)">Administer</text>
    <text style="font-weight: 700; font-size: 7.5px; font-family: 'Inter', 'DejaVu Sans'; fill: #ffffff" transform="translate(171.691289 57.278418)">(variations, claims,</text>
    <text style="font-weight: 700; font-size: 7.5px; font-family: 'Inter', 'DejaVu Sans'; fill: #ffffff" transform="translate(186.711211 66.280468)">certificates)</text>
   </g>
   <g id="text_4">
    <text style="font-size: 7.5px; font-family: 'Inter', 'DejaVu Sans'; fill: #1a1a1a" transform="translate(276.730758 52.777392)">Complete</text>
    <text style="font-size: 7.5px; font-family: 'Inter', 'DejaVu Sans'; fill: #1a1a1a" transform="translate(260.127047 61.779443)">(punch, handover)</text>
   </g>
   <g id="text_5">
    <text style="font-size: 7.5px; font-family: 'Inter', 'DejaVu Sans'; fill: #1a1a1a" transform="translate(367.17218 48.276367)">Close</text>
    <text style="font-size: 7.5px; font-family: 'Inter', 'DejaVu Sans'; fill: #1a1a1a" transform="translate(350.523352 57.278418)">(final account,</text>
    <text style="font-size: 7.5px; font-family: 'Inter', 'DejaVu Sans'; fill: #1a1a1a" transform="translate(343.954992 66.280468)">retention release)</text>
   </g>
   <g id="text_6">
    <text style="font-size: 7.5px; font-family: 'Inter', 'DejaVu Sans'; text-anchor: middle; fill: #5a6560" x="212.22" y="101.801647" transform="rotate(-0 212.22 101.801647)">Records made while administering are the claims evidence at close (7.2.2, 7.T.2).</text>
   </g>
  </g>
 </g>
 <defs>
  <clipPath id="p33c90c2610">
   <rect x="5.76" y="5.76" width="412.92" height="105.336"/>
  </clipPath>
 </defs>
</svg>
