<?xml version="1.0" encoding="utf-8" standalone="no"?>
<!DOCTYPE svg PUBLIC "-//W3C//DTD SVG 1.1//EN"
  "http://www.w3.org/Graphics/SVG/1.1/DTD/svg11.dtd">
<svg xmlns:xlink="http://www.w3.org/1999/xlink" width="403.406081pt" height="216.195687pt" viewBox="0 0 403.406081 216.195687" xmlns="http://www.w3.org/2000/svg" version="1.1">
 <metadata>
  <rdf:RDF xmlns:dc="http://purl.org/dc/elements/1.1/" xmlns:cc="http://creativecommons.org/ns#" xmlns:rdf="http://www.w3.org/1999/02/22-rdf-syntax-ns#">
   <cc:Work>
    <dc:type rdf:resource="http://purl.org/dc/dcmitype/StillImage"/>
    <dc:date>2026-07-14T21:16:00.799082</dc:date>
    <dc:format>image/svg+xml</dc:format>
    <dc:creator>
     <cc:Agent>
      <dc:title>Matplotlib v3.11.0, https://matplotlib.org/</dc:title>
     </cc:Agent>
    </dc:creator>
   </cc:Work>
  </rdf:RDF>
 </metadata>
 <defs>
  <style type="text/css">*{stroke-linejoin: round; stroke-linecap: butt}</style>
 </defs>
 <g id="figure_1">
  <g id="patch_1">
   <path d="M 0 216.195687 
L 403.406081 216.195687 
L 403.406081 0 
L 0 0 
z
" style="fill: #ffffff"/>
  </g>
  <g id="axes_1">
   <g id="patch_2">
    <path d="M 34.845918 194.256 
L 391.965918 194.256 
L 391.965918 5.76 
L 34.845918 5.76 
z
" style="fill: #ffffff"/>
   </g>
   <g id="matplotlib.axis_1">
    <g id="xtick_1">
     <g id="line2d_1">
      <defs>
       <path id="mf06eb12123" d="M 0 0 
L 0 3 
" style="stroke: #64748b; stroke-width: 0.8"/>
      </defs>
      <g>
       <use xlink:href="#mf06eb12123" x="51.078645" y="194.256" style="fill: #64748b; stroke: #64748b; stroke-width: 0.8"/>
      </g>
     </g>
     <g id="text_1">
      <text style="font-size: 8px; font-family: 'Inter', 'DejaVu Sans'; text-anchor: middle; fill: #64748b" x="51.078645" y="208.506" transform="rotate(-0 51.078645 208.506)">Award</text>
     </g>
    </g>
    <g id="xtick_2">
     <g id="line2d_2">
      <g>
       <use xlink:href="#mf06eb12123" x="159.296827" y="194.256" style="fill: #64748b; stroke: #64748b; stroke-width: 0.8"/>
      </g>
     </g>
     <g id="text_2">
      <text style="font-size: 8px; font-family: 'Inter', 'DejaVu Sans'; text-anchor: middle; fill: #64748b" x="159.296827" y="208.506" transform="rotate(-0 159.296827 208.506)">Year 1</text>
     </g>
    </g>
    <g id="xtick_3">
     <g id="line2d_3">
      <g>
       <use xlink:href="#mf06eb12123" x="267.515009" y="194.256" style="fill: #64748b; stroke: #64748b; stroke-width: 0.8"/>
      </g>
     </g>
     <g id="text_3">
      <text style="font-size: 8px; font-family: 'Inter', 'DejaVu Sans'; text-anchor: middle; fill: #64748b" x="267.515009" y="208.506" transform="rotate(-0 267.515009 208.506)">Year 2</text>
     </g>
    </g>
    <g id="xtick_4">
     <g id="line2d_4">
      <g>
       <use xlink:href="#mf06eb12123" x="375.733191" y="194.256" style="fill: #64748b; stroke: #64748b; stroke-width: 0.8"/>
      </g>
     </g>
     <g id="text_4">
      <text style="font-size: 8px; font-family: 'Inter', 'DejaVu Sans'; text-anchor: middle; fill: #64748b" x="375.733191" y="208.506" transform="rotate(-0 375.733191 208.506)">Year 3</text>
     </g>
    </g>
   </g>
   <g id="matplotlib.axis_2">
    <g id="ytick_1">
     <g id="line2d_5">
      <path d="M 34.845918 185.688 
L 391.965918 185.688 
" clip-path="url(#p1f325f2c03)" style="fill: none; stroke: #edf1f7; stroke-width: 0.7; stroke-linecap: round"/>
     </g>
     <g id="line2d_6">
      <defs>
       <path id="mf62c077395" d="M 0 0 
L -3 0 
" style="stroke: #64748b; stroke-width: 0.8"/>
      </defs>
      <g>
       <use xlink:href="#mf62c077395" x="34.845918" y="185.688" style="fill: #64748b; stroke: #64748b; stroke-width: 0.8"/>
      </g>
     </g>
     <g id="text_5">
      <text style="font-size: 8px; font-family: 'Inter', 'DejaVu Sans'; text-anchor: end; fill: #64748b" x="28.345918" y="189.563" transform="rotate(-0 28.345918 189.563)">0</text>
     </g>
    </g>
    <g id="ytick_2">
     <g id="line2d_7">
      <path d="M 34.845918 157.128 
L 391.965918 157.128 
" clip-path="url(#p1f325f2c03)" style="fill: none; stroke: #edf1f7; stroke-width: 0.7; stroke-linecap: round"/>
     </g>
     <g id="line2d_8">
      <g>
       <use xlink:href="#mf62c077395" x="34.845918" y="157.128" style="fill: #64748b; stroke: #64748b; stroke-width: 0.8"/>
      </g>
     </g>
     <g id="text_6">
      <text style="font-size: 8px; font-family: 'Inter', 'DejaVu Sans'; text-anchor: end; fill: #64748b" x="28.345918" y="161.003" transform="rotate(-0 28.345918 161.003)">2</text>
     </g>
    </g>
    <g id="ytick_3">
     <g id="line2d_9">
      <path d="M 34.845918 128.568 
L 391.965918 128.568 
" clip-path="url(#p1f325f2c03)" style="fill: none; stroke: #edf1f7; stroke-width: 0.7; stroke-linecap: round"/>
     </g>
     <g id="line2d_10">
      <g>
       <use xlink:href="#mf62c077395" x="34.845918" y="128.568" style="fill: #64748b; stroke: #64748b; stroke-width: 0.8"/>
      </g>
     </g>
     <g id="text_7">
      <text style="font-size: 8px; font-family: 'Inter', 'DejaVu Sans'; text-anchor: end; fill: #64748b" x="28.345918" y="132.443" transform="rotate(-0 28.345918 132.443)">4</text>
     </g>
    </g>
    <g id="ytick_4">
     <g id="line2d_11">
      <path d="M 34.845918 100.008 
L 391.965918 100.008 
" clip-path="url(#p1f325f2c03)" style="fill: none; stroke: #edf1f7; stroke-width: 0.7; stroke-linecap: round"/>
     </g>
     <g id="line2d_12">
      <g>
       <use xlink:href="#mf62c077395" x="34.845918" y="100.008" style="fill: #64748b; stroke: #64748b; stroke-width: 0.8"/>
      </g>
     </g>
     <g id="text_8">
      <text style="font-size: 8px; font-family: 'Inter', 'DejaVu Sans'; text-anchor: end; fill: #64748b" x="28.345918" y="103.883" transform="rotate(-0 28.345918 103.883)">6</text>
     </g>
    </g>
    <g id="ytick_5">
     <g id="line2d_13">
      <path d="M 34.845918 71.448 
L 391.965918 71.448 
" clip-path="url(#p1f325f2c03)" style="fill: none; stroke: #edf1f7; stroke-width: 0.7; stroke-linecap: round"/>
     </g>
     <g id="line2d_14">
      <g>
       <use xlink:href="#mf62c077395" x="34.845918" y="71.448" style="fill: #64748b; stroke: #64748b; stroke-width: 0.8"/>
      </g>
     </g>
     <g id="text_9">
      <text style="font-size: 8px; font-family: 'Inter', 'DejaVu Sans'; text-anchor: end; fill: #64748b" x="28.345918" y="75.323" transform="rotate(-0 28.345918 75.323)">8</text>
     </g>
    </g>
    <g id="ytick_6">
     <g id="line2d_15">
      <path d="M 34.845918 42.888 
L 391.965918 42.888 
" clip-path="url(#p1f325f2c03)" style="fill: none; stroke: #edf1f7; stroke-width: 0.7; stroke-linecap: round"/>
     </g>
     <g id="line2d_16">
      <g>
       <use xlink:href="#mf62c077395" x="34.845918" y="42.888" style="fill: #64748b; stroke: #64748b; stroke-width: 0.8"/>
      </g>
     </g>
     <g id="text_10">
      <text style="font-size: 8px; font-family: 'Inter', 'DejaVu Sans'; text-anchor: end; fill: #64748b" x="28.345918" y="46.763" transform="rotate(-0 28.345918 46.763)">10</text>
     </g>
    </g>
    <g id="ytick_7">
     <g id="line2d_17">
      <path d="M 34.845918 14.328 
L 391.965918 14.328 
" clip-path="url(#p1f325f2c03)" style="fill: none; stroke: #edf1f7; stroke-width: 0.7; stroke-linecap: round"/>
     </g>
     <g id="line2d_18">
      <g>
       <use xlink:href="#mf62c077395" x="34.845918" y="14.328" style="fill: #64748b; stroke: #64748b; stroke-width: 0.8"/>
      </g>
     </g>
     <g id="text_11">
      <text style="font-size: 8px; font-family: 'Inter', 'DejaVu Sans'; text-anchor: end; fill: #64748b" x="28.345918" y="18.203" transform="rotate(-0 28.345918 18.203)">12</text>
     </g>
    </g>
    <g id="text_12">
     <text style="font-size: 8.5px; font-family: 'Inter', 'DejaVu Sans'; text-anchor: middle; fill: #64748b" x="13.994375" y="100.008" transform="rotate(-90 13.994375 100.008)">USD m</text>
    </g>
   </g>
   <g id="FillBetweenPolyCollection_1">
    <defs>
     <path id="m1696278ac3" d="M 51.078645 -30.507687 
L 51.078645 -30.507687 
L 159.296827 -56.211687 
L 267.515009 -107.619687 
L 375.733191 -167.595687 
L 375.733191 -201.867687 
L 375.733191 -201.867687 
L 267.515009 -126.897688 
L 159.296827 -64.779687 
L 51.078645 -30.507687 
z
" style="stroke: #eef3ff; stroke-opacity: 0.9"/>
    </defs>
    <g clip-path="url(#p1f325f2c03)">
     <use xlink:href="#m1696278ac3" x="0" y="216.195687" style="fill: #eef3ff; fill-opacity: 0.9; stroke: #eef3ff; stroke-opacity: 0.9"/>
    </g>
   </g>
   <g id="line2d_19">
    <path d="M 51.078645 185.688 
L 159.296827 151.416 
L 267.515009 89.298 
L 375.733191 14.328 
" clip-path="url(#p1f325f2c03)" style="fill: none; stroke: #1d4ed8; stroke-width: 2.2; stroke-linecap: round"/>
    <defs>
     <path id="maf1872c621" d="M 0 3 
C 0.795609 3 1.55874 2.683901 2.12132 2.12132 
C 2.683901 1.55874 3 0.795609 3 0 
C 3 -0.795609 2.683901 -1.55874 2.12132 -2.12132 
C 1.55874 -2.683901 0.795609 -3 0 -3 
C -0.795609 -3 -1.55874 -2.683901 -2.12132 -2.12132 
C -2.683901 -1.55874 -3 -0.795609 -3 0 
C -3 0.795609 -2.683901 1.55874 -2.12132 2.12132 
C -1.55874 2.683901 -0.795609 3 0 3 
z
" style="stroke: #1d4ed8"/>
    </defs>
    <g clip-path="url(#p1f325f2c03)">
     <use xlink:href="#maf1872c621" x="51.078645" y="185.688" style="fill: #1d4ed8; stroke: #1d4ed8"/>
     <use xlink:href="#maf1872c621" x="159.296827" y="151.416" style="fill: #1d4ed8; stroke: #1d4ed8"/>
     <use xlink:href="#maf1872c621" x="267.515009" y="89.298" style="fill: #1d4ed8; stroke: #1d4ed8"/>
     <use xlink:href="#maf1872c621" x="375.733191" y="14.328" style="fill: #1d4ed8; stroke: #1d4ed8"/>
    </g>
   </g>
   <g id="line2d_20">
    <path d="M 51.078645 185.688 
L 159.296827 159.984 
L 267.515009 108.576 
L 375.733191 48.6 
" clip-path="url(#p1f325f2c03)" style="fill: none; stroke: #64748b; stroke-width: 2.2; stroke-linecap: round"/>
    <defs>
     <path id="mb94da174df" d="M 0 3 
C 0.795609 3 1.55874 2.683901 2.12132 2.12132 
C 2.683901 1.55874 3 0.795609 3 0 
C 3 -0.795609 2.683901 -1.55874 2.12132 -2.12132 
C 1.55874 -2.683901 0.795609 -3 0 -3 
C -0.795609 -3 -1.55874 -2.683901 -2.12132 -2.12132 
C -2.683901 -1.55874 -3 -0.795609 -3 0 
C -3 0.795609 -2.683901 1.55874 -2.12132 2.12132 
C -1.55874 2.683901 -0.795609 3 0 3 
z
" style="stroke: #64748b"/>
    </defs>
    <g clip-path="url(#p1f325f2c03)">
     <use xlink:href="#mb94da174df" x="51.078645" y="185.688" style="fill: #64748b; stroke: #64748b"/>
     <use xlink:href="#mb94da174df" x="159.296827" y="159.984" style="fill: #64748b; stroke: #64748b"/>
     <use xlink:href="#mb94da174df" x="267.515009" y="108.576" style="fill: #64748b; stroke: #64748b"/>
     <use xlink:href="#mb94da174df" x="375.733191" y="48.6" style="fill: #64748b; stroke: #64748b"/>
    </g>
   </g>
   <g id="patch_3">
    <path d="M 34.845918 194.256 
L 34.845918 5.76 
" style="fill: none; stroke: #cbd5e1; stroke-width: 0.8; stroke-linejoin: miter; stroke-linecap: square"/>
   </g>
   <g id="patch_4">
    <path d="M 34.845918 194.256 
L 391.965918 194.256 
" style="fill: none; stroke: #cbd5e1; stroke-width: 0.8; stroke-linejoin: miter; stroke-linecap: square"/>
   </g>
   <g id="text_13">
    <text style="font-size: 7.5px; font-family: 'Inter', 'DejaVu Sans'; text-anchor: middle; fill: #1d4ed8" x="159.296827" y="155.7" transform="rotate(-0 159.296827 155.7)">profit 0.60m</text>
   </g>
   <g id="text_14">
    <text style="font-size: 7.5px; font-family: 'Inter', 'DejaVu Sans'; text-anchor: middle; fill: #1d4ed8" x="267.515009" y="98.937" transform="rotate(-0 267.515009 98.937)">profit 1.35m</text>
   </g>
   <g id="text_15">
    <text style="font-size: 7.5px; font-family: 'Inter', 'DejaVu Sans'; text-anchor: middle; fill: #1d4ed8" x="375.733191" y="31.464" transform="rotate(-0 375.733191 31.464)">profit 2.40m</text>
   </g>
   <g id="legend_1">
    <g id="line2d_21">
     <path d="M 42.045918 17.91 
L 50.045918 17.91 
L 58.045918 17.91 
" style="fill: none; stroke: #1d4ed8; stroke-width: 2.2; stroke-linecap: round"/>
     <g>
      <use xlink:href="#maf1872c621" x="50.045918" y="17.91" style="fill: #1d4ed8; stroke: #1d4ed8"/>
     </g>
    </g>
    <g id="text_16">
     <text style="font-size: 8px; font-family: 'Inter', 'DejaVu Sans'; text-anchor: start" x="64.445918" y="20.71" transform="rotate(-0 64.445918 20.71)">Cumulative revenue</text>
    </g>
    <g id="line2d_22">
     <path d="M 42.045918 31.589688 
L 50.045918 31.589688 
L 58.045918 31.589688 
" style="fill: none; stroke: #64748b; stroke-width: 2.2; stroke-linecap: round"/>
     <g>
      <use xlink:href="#mb94da174df" x="50.045918" y="31.589688" style="fill: #64748b; stroke: #64748b"/>
     </g>
    </g>
    <g id="text_17">
     <text style="font-size: 8px; font-family: 'Inter', 'DejaVu Sans'; text-anchor: start" x="64.445918" y="34.389688" transform="rotate(-0 64.445918 34.389688)">Cumulative cost</text>
    </g>
   </g>
  </g>
 </g>
 <defs>
  <clipPath id="p1f325f2c03">
   <rect x="34.845918" y="5.76" width="357.12" height="188.496"/>
  </clipPath>
 </defs>
</svg>
