<svg xmlns="http://www.w3.org/2000/svg" viewBox="0 0 700 460" font-family="Inter, Helvetica, Arial, sans-serif"><rect width="700" height="460" fill="white"/><line x1="350" y1="186" x2="350" y2="91" stroke="#5A6560" stroke-width="1.6"/><rect x="272" y="39" width="156" height="52" rx="8" fill="white" stroke="#1A1A1A" stroke-width="1.4"/><text x="350" y="59" font-size="12" font-weight="700" fill="#1A1A1A" text-anchor="middle">Sponsors</text><text x="350" y="77" font-size="8.6" fill="#5A6560" text-anchor="middle">equity in · distributions out</text><line x1="404" y1="208" x2="506" y2="160" stroke="#5A6560" stroke-width="1.6"/><rect x="480" y="122" width="156" height="52" rx="8" fill="white" stroke="#1A1A1A" stroke-width="1.4"/><text x="558" y="142" font-size="12" font-weight="700" fill="#1A1A1A" text-anchor="middle">Lenders</text><text x="558" y="160" font-size="8.6" fill="#5A6560" text-anchor="middle">debt in · debt service out</text><line x1="404" y1="252" x2="506" y2="300" stroke="#5A6560" stroke-width="1.6"/><rect x="480" y="286" width="156" height="52" rx="8" fill="white" stroke="#1A1A1A" stroke-width="1.4"/><text x="558" y="306" font-size="12" font-weight="700" fill="#1A1A1A" text-anchor="middle">Offtaker</text><text x="558" y="324" font-size="8.6" fill="#5A6560" text-anchor="middle">service out · availability payments in</text><line x1="350" y1="274" x2="350" y2="369" stroke="#5A6560" stroke-width="1.6"/><rect x="272" y="369" width="156" height="52" rx="8" fill="white" stroke="#1A1A1A" stroke-width="1.4"/><text x="350" y="389" font-size="12" font-weight="700" fill="#1A1A1A" text-anchor="middle">EPC contractor</text><text x="350" y="407" font-size="8.6" fill="#5A6560" text-anchor="middle">plant in · milestone payments out</text><line x1="296" y1="252" x2="194" y2="300" stroke="#5A6560" stroke-width="1.6"/><rect x="64" y="286" width="156" height="52" rx="8" fill="white" stroke="#1A1A1A" stroke-width="1.4"/><text x="142" y="306" font-size="12" font-weight="700" fill="#1A1A1A" text-anchor="middle">O&M contractor</text><text x="142" y="324" font-size="8.6" fill="#5A6560" text-anchor="middle">operations in · fees out</text><line x1="296" y1="208" x2="194" y2="160" stroke="#5A6560" stroke-width="1.6"/><rect x="64" y="122" width="156" height="52" rx="8" fill="white" stroke="#1A1A1A" stroke-width="1.4"/><text x="142" y="142" font-size="12" font-weight="700" fill="#1A1A1A" text-anchor="middle">Government</text><text x="142" y="160" font-size="8.6" fill="#5A6560" text-anchor="middle">permits & direct agreement</text><ellipse cx="350.0" cy="230.0" rx="86" ry="52" fill="white" stroke="#14432E" stroke-width="3"/><text x="350.0" y="226.0" font-size="14" font-weight="800" fill="#14432E" text-anchor="middle">PROJECT SPV</text><text x="350.0" y="245.0" font-size="9" fill="#5A6560" text-anchor="middle">ring-fenced · single purpose</text></svg>