<svg xmlns="http://www.w3.org/2000/svg" viewBox="0 0 760 480" font-family="Inter, Helvetica, Arial, sans-serif"><rect width="760" height="480" fill="white"/><line x1="250.0" y1="104" x2="250.0" y2="416" stroke="#E2E8F0"/><text x="250.0" y="433" font-size="9.8" fill="#64748B" text-anchor="middle">0 %</text><line x1="311.8" y1="104" x2="311.8" y2="416" stroke="#E2E8F0"/><text x="311.8" y="433" font-size="9.8" fill="#64748B" text-anchor="middle">20 %</text><line x1="373.7" y1="104" x2="373.7" y2="416" stroke="#E2E8F0"/><text x="373.7" y="433" font-size="9.8" fill="#64748B" text-anchor="middle">40 %</text><line x1="435.5" y1="104" x2="435.5" y2="416" stroke="#E2E8F0"/><text x="435.5" y="433" font-size="9.8" fill="#64748B" text-anchor="middle">60 %</text><line x1="497.4" y1="104" x2="497.4" y2="416" stroke="#E2E8F0"/><text x="497.4" y="433" font-size="9.8" fill="#64748B" text-anchor="middle">80 %</text><line x1="559.2" y1="104" x2="559.2" y2="416" stroke="#E2E8F0"/><text x="559.2" y="433" font-size="9.8" fill="#64748B" text-anchor="middle">100 %</text><line x1="621.1" y1="104" x2="621.1" y2="416" stroke="#E2E8F0"/><text x="621.1" y="433" font-size="9.8" fill="#64748B" text-anchor="middle">120 %</text><line x1="559.2" y1="98" x2="559.2" y2="416" stroke="#0F172A" stroke-width="1.6" stroke-dasharray="5 4"/><text x="553.2" y="92" font-size="10.4" font-weight="700" fill="#0F172A" text-anchor="end">100 % &#8212; no review detects everything</text><line x1="291.2" y1="126.3" x2="533.1" y2="126.3" stroke="#64748B" stroke-width="1.5" opacity="0.55"/><circle cx="533.1" cy="126.3" r="5.2" fill="#C13329"/><circle cx="291.2" cy="126.3" r="5.2" fill="#1D4ED8"/><text x="236" y="124.3" font-size="10.4" fill="#0F172A" text-anchor="end" font-weight="600">Market</text><text x="236" y="137.3" font-size="9.2" fill="#64748B" text-anchor="end">fee 190,000 &#183; 9 weeks</text><text x="282.2" y="130.3" font-size="9.6" font-weight="700" fill="#1D4ED8" text-anchor="end">13.31</text><text x="542.1" y="130.3" font-size="9.8" font-weight="700" fill="#C13329" text-anchor="start">91.54 %</text><line x1="296.2" y1="170.9" x2="472.7" y2="170.9" stroke="#64748B" stroke-width="1.5" opacity="0.55"/><circle cx="472.7" cy="170.9" r="5.2" fill="#C13329"/><circle cx="296.2" cy="170.9" r="5.2" fill="#1D4ED8"/><text x="236" y="168.9" font-size="10.4" fill="#0F172A" text-anchor="end" font-weight="600">Technical &#8212; independent engineer</text><text x="236" y="181.9" font-size="9.2" fill="#64748B" text-anchor="end">fee 260,000 &#183; 8 weeks</text><text x="287.2" y="174.9" font-size="9.6" font-weight="700" fill="#1D4ED8" text-anchor="end">14.94</text><text x="481.7" y="174.9" font-size="9.8" font-weight="700" fill="#C13329" text-anchor="start">72.02 %</text><line x1="301.1" y1="215.4" x2="618.4" y2="215.4" stroke="#64748B" stroke-width="1.5" opacity="0.55"/><circle cx="618.4" cy="215.4" r="5.2" fill="#C13329"/><circle cx="301.1" cy="215.4" r="5.2" fill="#1D4ED8"/><text x="236" y="213.4" font-size="10.4" fill="#0F172A" text-anchor="end" font-weight="600">Environmental and social</text><text x="236" y="226.4" font-size="9.2" fill="#64748B" text-anchor="end">fee 240,000 &#183; 12 weeks</text><text x="292.1" y="219.4" font-size="9.6" font-weight="700" fill="#1D4ED8" text-anchor="end">16.53</text><text x="627.4" y="219.4" font-size="9.8" font-weight="700" fill="#C13329" text-anchor="start">119.12 %</text><line x1="301.5" y1="260.0" x2="557.4" y2="260.0" stroke="#64748B" stroke-width="1.5" opacity="0.55"/><circle cx="557.4" cy="260.0" r="5.2" fill="#C13329"/><circle cx="301.5" cy="260.0" r="5.2" fill="#1D4ED8"/><text x="236" y="258.0" font-size="10.4" fill="#0F172A" text-anchor="end" font-weight="600">Tax</text><text x="236" y="271.0" font-size="9.2" fill="#64748B" text-anchor="end">fee 150,000 &#183; 6 weeks</text><text x="292.5" y="264.0" font-size="9.6" font-weight="700" fill="#1D4ED8" text-anchor="end">16.67</text><text x="566.4" y="264.0" font-size="9.8" font-weight="700" fill="#C13329" text-anchor="start">99.42 %</text><line x1="309.4" y1="304.6" x2="484.9" y2="304.6" stroke="#64748B" stroke-width="1.5" opacity="0.55"/><circle cx="484.9" cy="304.6" r="5.2" fill="#C13329"/><circle cx="309.4" cy="304.6" r="5.2" fill="#1D4ED8"/><text x="236" y="302.6" font-size="10.4" fill="#0F172A" text-anchor="end" font-weight="600">Legal</text><text x="236" y="315.6" font-size="9.2" fill="#64748B" text-anchor="end">fee 420,000 &#183; 10 weeks</text><text x="300.4" y="308.6" font-size="9.6" font-weight="700" fill="#1D4ED8" text-anchor="end">19.20</text><text x="493.9" y="308.6" font-size="9.8" font-weight="700" fill="#C13329" text-anchor="start">75.95 %</text><line x1="310.5" y1="349.1" x2="518.9" y2="349.1" stroke="#64748B" stroke-width="1.5" opacity="0.55"/><circle cx="518.9" cy="349.1" r="5.2" fill="#C13329"/><circle cx="310.5" cy="349.1" r="5.2" fill="#1D4ED8"/><text x="236" y="347.1" font-size="10.4" fill="#0F172A" text-anchor="end" font-weight="600">Financial &#8212; model audit, accounts</text><text x="236" y="360.1" font-size="9.2" fill="#64748B" text-anchor="end">fee 180,000 &#183; 5 weeks</text><text x="301.5" y="353.1" font-size="9.6" font-weight="700" fill="#1D4ED8" text-anchor="end">19.55</text><text x="527.9" y="353.1" font-size="9.8" font-weight="700" fill="#C13329" text-anchor="start">86.95 %</text><line x1="346.6" y1="393.7" x2="652.0" y2="393.7" stroke="#64748B" stroke-width="1.5" opacity="0.55"/><polygon points="652.0,387.7 663.0,393.7 652.0,399.7" fill="#C13329"/><circle cx="346.6" cy="393.7" r="5.2" fill="#1D4ED8"/><text x="236" y="391.7" font-size="10.4" fill="#0F172A" text-anchor="end" font-weight="600">Insurance</text><text x="236" y="404.7" font-size="9.2" fill="#64748B" text-anchor="end">fee 60,000 &#183; 4 weeks</text><text x="337.6" y="397.7" font-size="9.6" font-weight="700" fill="#1D4ED8" text-anchor="end">31.25</text><text x="667.0" y="397.7" font-size="9.8" font-weight="700" fill="#C13329" text-anchor="start">289.86 % &#8212; impossible</text><line x1="250" y1="416" x2="652" y2="416" stroke="#0F172A" stroke-width="1.2"/><line x1="250" y1="104" x2="250" y2="416" stroke="#0F172A" stroke-width="1.2"/><text x="451.0" y="450" font-size="12" fill="#64748B" text-anchor="middle">Breakeven detection rate &#8212; (fee + priced elapsed time) &#247; p &#215; (C &#8722; F)</text><text x="198" y="260.0" font-size="12" fill="#64748B" text-anchor="middle" transform="rotate(-90 198 260.0)"></text><text x="24" y="26" font-size="12.5" font-weight="700" fill="#0F172A">Diligence is bought with time, not money: the same seven streams are worth +4,066,700 in parallel and &#8722;1,146,900 in series</text><text x="24" y="45" font-size="10.4" fill="#1D4ED8">Blue &#8212; the stream sits inside a common twelve-week envelope, so only its 1,500,000 of fees is charged against it</text><text x="24" y="61" font-size="10.4" fill="#C13329">Crimson &#8212; the stream is sequenced serially, so it also carries its own elapsed weeks at 124,133.33 each</text><text x="24" y="77" font-size="10.4" fill="#64748B">Insurance and environmental-and-social review cannot pay in series at any detection rate: the delay alone exceeds the loss avoided</text><text x="451.0" y="465" font-size="11.2" font-weight="600" fill="#0F172A" text-anchor="middle">The 5,213,600 that separates the two readings is 42 weeks of scheduling &#8212; not one hour of diligence</text></svg>