<svg xmlns="http://www.w3.org/2000/svg" viewBox="0 0 680 430" font-family="Inter, Helvetica, Arial, sans-serif"><rect width="680" height="430" fill="white"/><line x1="92" y1="334.0" x2="512" y2="334.0" stroke="#DCE3DE"/><text x="84" y="338.0" font-size="10" fill="#5A6560" text-anchor="end">40 %</text><line x1="92" y1="286.6" x2="512" y2="286.6" stroke="#DCE3DE"/><text x="84" y="290.6" font-size="10" fill="#5A6560" text-anchor="end">50 %</text><line x1="92" y1="239.2" x2="512" y2="239.2" stroke="#DCE3DE"/><text x="84" y="243.2" font-size="10" fill="#5A6560" text-anchor="end">60 %</text><line x1="92" y1="191.7" x2="512" y2="191.7" stroke="#DCE3DE"/><text x="84" y="195.7" font-size="10" fill="#5A6560" text-anchor="end">70 %</text><line x1="92" y1="144.3" x2="512" y2="144.3" stroke="#DCE3DE"/><text x="84" y="148.3" font-size="10" fill="#5A6560" text-anchor="end">80 %</text><line x1="92" y1="96.9" x2="512" y2="96.9" stroke="#DCE3DE"/><text x="84" y="100.9" font-size="10" fill="#5A6560" text-anchor="end">90 %</text><line x1="92" y1="49.5" x2="512" y2="49.5" stroke="#DCE3DE"/><text x="84" y="53.5" font-size="10" fill="#5A6560" text-anchor="end">100 %</text><line x1="92" y1="93.7" x2="512" y2="93.7" stroke="#5A6560" stroke-width="1.4" stroke-dasharray="6 4"/><text x="100" y="87.7" font-size="10.5" fill="#5A6560">Arithmetic mean of the six step yields &#8212; 90.67 %</text><polyline points="92.0,49.5 162.0,73.2 232.0,109.2 302.0,150.7 372.0,173.1 442.0,215.1 512.0,261.4" fill="none" stroke="#14432E" stroke-width="2.6"/><circle cx="162.0" cy="73.2" r="3.6" fill="#14432E"/><text x="162.0" y="63.2" font-size="10" fill="#1A1A1A" text-anchor="middle" font-weight="600">95.00</text><line x1="162.0" y1="334.0" x2="162.0" y2="339.0" stroke="#5A6560"/><text x="162.0" y="352.0" font-size="9.5" fill="#5A6560" text-anchor="middle">0.95</text><text x="162.0" y="366.0" font-size="9" fill="#5A6560" text-anchor="middle">Design package</text><text x="162.0" y="377.0" font-size="9" fill="#5A6560" text-anchor="middle">issue</text><circle cx="232.0" cy="109.2" r="3.6" fill="#14432E"/><text x="232.0" y="99.2" font-size="10" fill="#1A1A1A" text-anchor="middle" font-weight="600">87.40</text><line x1="232.0" y1="334.0" x2="232.0" y2="339.0" stroke="#5A6560"/><text x="232.0" y="352.0" font-size="9.5" fill="#5A6560" text-anchor="middle">0.92</text><text x="232.0" y="366.0" font-size="9" fill="#5A6560" text-anchor="middle">Supplier document</text><text x="232.0" y="377.0" font-size="9" fill="#5A6560" text-anchor="middle">review</text><circle cx="302.0" cy="150.7" r="3.6" fill="#14432E"/><text x="302.0" y="140.7" font-size="10" fill="#1A1A1A" text-anchor="middle" font-weight="600">78.66</text><line x1="302.0" y1="334.0" x2="302.0" y2="339.0" stroke="#5A6560"/><text x="302.0" y="352.0" font-size="9.5" fill="#5A6560" text-anchor="middle">0.90</text><text x="302.0" y="366.0" font-size="9" fill="#5A6560" text-anchor="middle">Factory</text><text x="302.0" y="377.0" font-size="9" fill="#5A6560" text-anchor="middle">acceptance</text><circle cx="372.0" cy="173.1" r="3.6" fill="#14432E"/><text x="372.0" y="163.1" font-size="10" fill="#1A1A1A" text-anchor="middle" font-weight="600">73.94</text><line x1="372.0" y1="334.0" x2="372.0" y2="339.0" stroke="#5A6560"/><text x="372.0" y="352.0" font-size="9.5" fill="#5A6560" text-anchor="middle">0.94</text><text x="372.0" y="366.0" font-size="9" fill="#5A6560" text-anchor="middle">Site</text><text x="372.0" y="377.0" font-size="9" fill="#5A6560" text-anchor="middle">installation</text><circle cx="442.0" cy="215.1" r="3.6" fill="#14432E"/><text x="442.0" y="205.1" font-size="10" fill="#1A1A1A" text-anchor="middle" font-weight="600">65.07</text><line x1="442.0" y1="334.0" x2="442.0" y2="339.0" stroke="#5A6560"/><text x="442.0" y="352.0" font-size="9.5" fill="#5A6560" text-anchor="middle">0.88</text><text x="442.0" y="366.0" font-size="9" fill="#5A6560" text-anchor="middle">Site acceptance</text><text x="442.0" y="377.0" font-size="9" fill="#5A6560" text-anchor="middle">test</text><circle cx="512.0" cy="261.4" r="3.6" fill="#14432E"/><text x="512.0" y="251.4" font-size="10" fill="#1A1A1A" text-anchor="middle" font-weight="600">55.31</text><line x1="512.0" y1="334.0" x2="512.0" y2="339.0" stroke="#5A6560"/><text x="512.0" y="352.0" font-size="9.5" fill="#5A6560" text-anchor="middle">0.85</text><text x="512.0" y="366.0" font-size="9" fill="#5A6560" text-anchor="middle">Handover</text><text x="512.0" y="377.0" font-size="9" fill="#5A6560" text-anchor="middle">documentation</text><line x1="512" y1="261.4" x2="522" y2="261.4" stroke="#8A5A00" stroke-width="1.4"/><text x="526" y="257.4" font-size="11" fill="#8A5A00" font-weight="700">55.31 %</text><text x="526" y="271.4" font-size="10" fill="#8A5A00">first time right</text><text x="526" y="284.4" font-size="10" fill="#5A6560">end to end</text><text x="526" y="58" font-size="10" fill="#1A1A1A">Fix the weakest</text><text x="526" y="71" font-size="10" fill="#1A1A1A">step (0.85 &#8594; 0.95):</text><text x="526" y="85" font-size="10.5" fill="#1A1A1A" font-weight="700">61.81 % (+6.51 pp)</text><text x="526" y="103" font-size="10" fill="#5A6560">Fix the strongest</text><text x="526" y="116" font-size="10" fill="#5A6560">(0.95 &#8594; 0.98):</text><text x="526" y="129" font-size="10" fill="#5A6560">57.05 % (+1.75 pp)</text><text x="526" y="147" font-size="10" fill="#8A5A00">3.73&#215; the gain,</text><text x="526" y="160" font-size="10" fill="#8A5A00">same effort</text><line x1="92" y1="334" x2="512" y2="334" stroke="#1A1A1A" stroke-width="1.2"/><line x1="92" y1="40" x2="92" y2="334" stroke="#1A1A1A" stroke-width="1.2"/><text x="302.0" y="368" font-size="12" fill="#5A6560" text-anchor="middle"></text><text x="40" y="187.0" font-size="12" fill="#5A6560" text-anchor="middle" transform="rotate(-90 40 187.0)">Cumulative first-time-right yield</text><text x="302.0" y="398.0" font-size="12" fill="#5A6560" text-anchor="middle">Sequential step (its own first-time-right yield beneath)</text></svg>