<svg xmlns="http://www.w3.org/2000/svg" viewBox="0 0 660 420" font-family="Inter, Helvetica, Arial, sans-serif"><rect width="660" height="420" fill="white"/><line x1="84" y1="358.0" x2="510" y2="358.0" stroke="#DCE3DE"/><text x="76" y="362.0" font-size="10" fill="#5A6560" text-anchor="end">200</text><line x1="84" y1="281.6" x2="510" y2="281.6" stroke="#DCE3DE"/><text x="76" y="285.6" font-size="10" fill="#5A6560" text-anchor="end">1,000</text><line x1="84" y1="172.2" x2="510" y2="172.2" stroke="#DCE3DE"/><text x="76" y="176.2" font-size="10" fill="#5A6560" text-anchor="end">10,000</text><line x1="84" y1="62.9" x2="510" y2="62.9" stroke="#DCE3DE"/><text x="76" y="66.9" font-size="10" fill="#5A6560" text-anchor="end">100,000</text><line x1="84" y1="30.0" x2="510" y2="30.0" stroke="#DCE3DE"/><text x="76" y="34.0" font-size="10" fill="#5A6560" text-anchor="end">200,000</text><rect x="104.4" y="325.1" width="44.3" height="32.9" fill="#14432E" opacity="0.88"/><text x="126.6" y="309.1" font-size="11" fill="#1A1A1A" text-anchor="middle" font-weight="600">400</text><text x="126.6" y="321.1" font-size="10" fill="#5A6560" text-anchor="middle">&#215;1</text><text x="126.6" y="374.0" font-size="10" fill="#5A6560" text-anchor="middle">Definition</text><rect x="189.6" y="259.3" width="44.3" height="98.7" fill="#14432E" opacity="0.88"/><text x="211.8" y="243.3" font-size="11" fill="#1A1A1A" text-anchor="middle" font-weight="600">1,600</text><text x="211.8" y="255.3" font-size="10" fill="#5A6560" text-anchor="middle">&#215;4</text><text x="211.8" y="374.0" font-size="10" fill="#5A6560" text-anchor="middle">Design</text><rect x="274.8" y="193.4" width="44.3" height="164.6" fill="#14432E" opacity="0.88"/><text x="297.0" y="177.4" font-size="11" fill="#1A1A1A" text-anchor="middle" font-weight="600">6,400</text><text x="297.0" y="189.4" font-size="10" fill="#5A6560" text-anchor="middle">&#215;16</text><text x="297.0" y="374.0" font-size="10" fill="#5A6560" text-anchor="middle">Build</text><rect x="360.0" y="127.6" width="44.3" height="230.4" fill="#14432E" opacity="0.88"/><text x="382.2" y="111.6" font-size="11" fill="#1A1A1A" text-anchor="middle" font-weight="600">25,600</text><text x="382.2" y="123.6" font-size="10" fill="#5A6560" text-anchor="middle">&#215;64</text><text x="382.2" y="374.0" font-size="10" fill="#5A6560" text-anchor="middle">Test &amp; integration</text><rect x="445.2" y="61.8" width="44.3" height="296.2" fill="#8A5A00" opacity="1"/><text x="467.4" y="45.8" font-size="11" fill="#1A1A1A" text-anchor="middle" font-weight="600">102,400</text><text x="467.4" y="57.8" font-size="10" fill="#5A6560" text-anchor="middle">&#215;256</text><text x="467.4" y="374.0" font-size="10" fill="#5A6560" text-anchor="middle">Live service</text><line x1="84" y1="71.2" x2="518" y2="71.2" stroke="#1A1A1A" stroke-width="1" stroke-dasharray="5 4"/><text x="522" y="67.2" font-size="10.5" fill="#1A1A1A">Elicitation spend</text><text x="522" y="80.2" font-size="10.5" fill="#1A1A1A" font-weight="600">USD 84,000</text><text x="522" y="99.2" font-size="10" fill="#8A5A00">One live defect moved</text><text x="522" y="112.2" font-size="10" fill="#8A5A00">to definition saves</text><text x="522" y="125.2" font-size="10" fill="#8A5A00" font-weight="600">102,000 &#8212; pays for it</text><text x="88" y="42" font-size="11" fill="#5A6560">Logarithmic scale &#8212; each stage costs four times the last</text><line x1="84" y1="358" x2="510" y2="358" stroke="#1A1A1A" stroke-width="1.2"/><line x1="84" y1="30" x2="84" y2="358" stroke="#1A1A1A" stroke-width="1.2"/><text x="297.0" y="392" font-size="12" fill="#5A6560" text-anchor="middle">Stage at which the requirement defect is found</text><text x="32" y="194.0" font-size="12" fill="#5A6560" text-anchor="middle" transform="rotate(-90 32 194.0)">Correction cost, USD per defect (log)</text></svg>